<svg width="40" height="40" viewBox="0 0 40 40" fill="none" xmlns="http://www.w3.org/2000/svg">
<path d="M5.75854 32.6758C5.75854 33.466 6.39693 34.1044 7.18711 34.1044H32.8121C33.6023 34.1044 34.2407 33.466 34.2407 32.6758V22.274C34.2407 14.4079 27.8657 8.03292 19.9996 8.03292C12.1335 8.03292 5.75854 14.4079 5.75854 22.274V32.6758ZM8.97282 22.274C8.97282 16.1847 13.9103 11.2472 19.9996 11.2472C26.0889 11.2472 31.0264 16.1847 31.0264 22.274V30.8901H15.1782V23.2561C15.1782 23.0106 14.9773 22.8097 14.7318 22.8097H12.7675C12.5219 22.8097 12.321 23.0106 12.321 23.2561V30.8901H8.97282V22.274ZM6.8255 11.0017L8.59336 9.23382C8.73175 9.09542 8.73175 8.86775 8.59336 8.72935L5.56211 5.6981C5.49498 5.63164 5.40434 5.59435 5.30987 5.59435C5.21541 5.59435 5.12477 5.63164 5.05764 5.6981L3.28979 7.46596C3.22332 7.53308 3.18604 7.62373 3.18604 7.71819C3.18604 7.81266 3.22332 7.9033 3.28979 7.97043L6.32104 11.0017C6.45943 11.1401 6.68264 11.1401 6.8255 11.0017ZM36.7184 7.46596L34.9505 5.6981C34.8834 5.63164 34.7927 5.59435 34.6983 5.59435C34.6038 5.59435 34.5132 5.63164 34.446 5.6981L31.4148 8.72935C31.3483 8.79648 31.311 8.88712 31.311 8.98159C31.311 9.07605 31.3483 9.16669 31.4148 9.23382L33.1826 11.0017C33.321 11.1401 33.5487 11.1401 33.6871 11.0017L36.7184 7.97043C36.8568 7.82757 36.8568 7.60435 36.7184 7.46596V7.46596ZM34.2853 36.9615H5.71389C4.92371 36.9615 4.28532 37.5999 4.28532 38.3901V39.4615C4.28532 39.6579 4.44604 39.8186 4.64246 39.8186H35.3568C35.5532 39.8186 35.7139 39.6579 35.7139 39.4615V38.3901C35.7139 37.5999 35.0755 36.9615 34.2853 36.9615ZM18.7496 5.17578H21.2496C21.446 5.17578 21.6068 5.01507 21.6068 4.81864V0.532924C21.6068 0.336496 21.446 0.175781 21.2496 0.175781H18.7496C18.5532 0.175781 18.3925 0.336496 18.3925 0.532924V4.81864C18.3925 5.01507 18.5532 5.17578 18.7496 5.17578Z" fill="#BEBEBE"/>
</svg>
