<svg width="57" height="56" viewBox="0 0 57 56" fill="none" xmlns="http://www.w3.org/2000/svg">
<path d="M47.5 43.9922H46V22.7422C46 13.9234 39.4813 6.63594 31 5.42344V2.99219C31 1.61094 29.8813 0.492188 28.5 0.492188C27.1188 0.492188 26 1.61094 26 2.99219V5.42344C17.5188 6.63594 11 13.9234 11 22.7422V43.9922H9.5C8.39375 43.9922 7.5 44.8859 7.5 45.9922V47.9922C7.5 48.2672 7.725 48.4922 8 48.4922H21.5C21.5 52.3547 24.6375 55.4922 28.5 55.4922C32.3625 55.4922 35.5 52.3547 35.5 48.4922H49C49.275 48.4922 49.5 48.2672 49.5 47.9922V45.9922C49.5 44.8859 48.6063 43.9922 47.5 43.9922ZM28.5 51.4922C26.8438 51.4922 25.5 50.1484 25.5 48.4922H31.5C31.5 50.1484 30.1563 51.4922 28.5 51.4922ZM15.5 43.9922V22.7422C15.5 19.2672 16.85 16.0047 19.3063 13.5484C21.7625 11.0922 25.025 9.74219 28.5 9.74219C31.975 9.74219 35.2375 11.0922 37.6938 13.5484C40.15 16.0047 41.5 19.2672 41.5 22.7422V43.9922H15.5Z" fill="#BEBEBE"/>
</svg>
