<svg width="18" height="18" viewBox="0 0 18 18" fill="none" xmlns="http://www.w3.org/2000/svg">
<path d="M15.9106 6.2666H11.732V2.08803C11.732 1.91124 11.5873 1.7666 11.4106 1.7666H2.08913C1.91234 1.7666 1.7677 1.91124 1.7677 2.08803V11.4095C1.7677 11.5862 1.91234 11.7309 2.08913 11.7309H6.2677V15.9095C6.2677 16.0862 6.41234 16.2309 6.58913 16.2309H15.9106C16.0873 16.2309 16.232 16.0862 16.232 15.9095V6.58803C16.232 6.41124 16.0873 6.2666 15.9106 6.2666ZM6.2677 6.58803V10.3648H3.13377V3.13267H10.3659V6.2666H6.58913C6.41234 6.2666 6.2677 6.41124 6.2677 6.58803ZM10.3659 7.63267V10.3648H7.63377V7.63267H10.3659ZM14.8659 14.8648H7.63377V11.7309H11.4106C11.5873 11.7309 11.732 11.5862 11.732 11.4095V7.63267H14.8659V14.8648Z" fill="white"/>
</svg>
