<svg width="18" height="18" viewBox="0 0 18 18" fill="none" xmlns="http://www.w3.org/2000/svg">
<g clip-path="url(#clip0_3150_3960)">
<path d="M9 0C4.02991 0 0 4.02991 0 9C0 13.9701 4.02991 18 9 18C13.9701 18 18 13.9701 18 9C18 4.02991 13.9701 0 9 0ZM9 16.4732C4.87366 16.4732 1.52679 13.1263 1.52679 9C1.52679 4.87366 4.87366 1.52679 9 1.52679C13.1263 1.52679 16.4732 4.87366 16.4732 9C16.4732 13.1263 13.1263 16.4732 9 16.4732Z" fill="white"/>
<path d="M12.5098 11.5414L9.64502 9.47022V4.49812C9.64502 4.40972 9.5727 4.3374 9.48431 4.3374H8.51801C8.42962 4.3374 8.3573 4.40972 8.3573 4.49812V10.0307C8.3573 10.0829 8.38141 10.1312 8.42359 10.1613L11.7464 12.5841C11.8187 12.6363 11.9191 12.6202 11.9714 12.5499L12.5459 11.7664C12.5981 11.6921 12.5821 11.5916 12.5098 11.5414Z" fill="white"/>
</g>
<defs>
<clipPath id="clip0_3150_3960">
<rect width="18" height="18" fill="white"/>
</clipPath>
</defs>
</svg>
