<svg width="41" height="37" viewBox="0 0 41 37" fill="none" xmlns="http://www.w3.org/2000/svg">
<path d="M39.3893 12.5196C38.3602 10.0839 36.8684 7.87102 34.9964 6.00357C33.129 4.13161 30.9161 2.63976 28.4804 1.61071C25.9499 0.539955 23.2684 0 20.5 0C17.7316 0 15.0501 0.539955 12.5196 1.61071C10.0839 2.63976 7.87102 4.13161 6.00357 6.00357C4.13161 7.87102 2.63976 10.0839 1.61071 12.5196C0.539955 15.0501 0 17.7316 0 20.5C0 26.5722 2.66775 32.2921 7.31685 36.1999L7.39464 36.264C7.66005 36.4836 7.99408 36.6071 8.33728 36.6071H32.6673C33.0105 36.6071 33.3445 36.4836 33.6099 36.264L33.6877 36.1999C38.3323 32.2921 41 26.5722 41 20.5C41 17.7316 40.4555 15.0501 39.3893 12.5196ZM31.9123 33.1295H9.08772C7.31958 31.5352 5.90642 29.587 4.93994 27.4112C3.97346 25.2354 3.47526 22.8808 3.47768 20.5C3.47768 15.9516 5.24855 11.6777 8.4654 8.4654C11.6823 5.24855 15.9561 3.47768 20.5 3.47768C25.0484 3.47768 29.3223 5.24855 32.5346 8.4654C35.7515 11.6823 37.5223 15.9561 37.5223 20.5C37.5223 25.3321 35.4861 29.9035 31.9123 33.1295ZM25.6021 14.1624C25.5333 14.0943 25.4404 14.056 25.3436 14.056C25.2468 14.056 25.1538 14.0943 25.085 14.1624L21.2184 18.029C20.3627 17.8002 19.4155 18.0199 18.7429 18.6925C18.5046 18.9303 18.3156 19.2128 18.1866 19.5237C18.0577 19.8346 17.9913 20.168 17.9913 20.5046C17.9913 20.8412 18.0577 21.1745 18.1866 21.4854C18.3156 21.7964 18.5046 22.0788 18.7429 22.3166C18.9807 22.5549 19.2631 22.7439 19.574 22.8729C19.885 23.0018 20.2183 23.0682 20.5549 23.0682C20.8915 23.0682 21.2248 23.0018 21.5358 22.8729C21.8467 22.7439 22.1292 22.5549 22.367 22.3166C22.6857 21.9989 22.9148 21.6027 23.0313 21.168C23.1478 20.7333 23.1475 20.2756 23.0305 19.8411L26.8971 15.9744C27.039 15.8326 27.039 15.5992 26.8971 15.4574L25.6021 14.1624V14.1624ZM19.4933 9.51786H21.5067C21.708 9.51786 21.8728 9.35313 21.8728 9.15179V5.49107C21.8728 5.28973 21.708 5.125 21.5067 5.125H19.4933C19.292 5.125 19.1272 5.28973 19.1272 5.49107V9.15179C19.1272 9.35313 19.292 9.51786 19.4933 9.51786ZM31.3906 19.4933V21.5067C31.3906 21.708 31.5554 21.8728 31.7567 21.8728H35.4174C35.6188 21.8728 35.7835 21.708 35.7835 21.5067V19.4933C35.7835 19.292 35.6188 19.1272 35.4174 19.1272H31.7567C31.5554 19.1272 31.3906 19.292 31.3906 19.4933ZM31.9718 10.4696L30.5487 9.04654C30.4799 8.97841 30.3869 8.9402 30.2901 8.9402C30.1933 8.9402 30.1004 8.97841 30.0316 9.04654L27.4416 11.6365C27.3735 11.7053 27.3353 11.7982 27.3353 11.895C27.3353 11.9919 27.3735 12.0848 27.4416 12.1536L28.8647 13.5767C29.0066 13.7185 29.24 13.7185 29.3818 13.5767L31.9718 10.9867C32.1136 10.8449 32.1136 10.6115 31.9718 10.4696ZM10.9867 9.04654C10.9179 8.97841 10.825 8.9402 10.7282 8.9402C10.6314 8.9402 10.5384 8.97841 10.4696 9.04654L9.04654 10.4696C8.97841 10.5384 8.9402 10.6314 8.9402 10.7282C8.9402 10.825 8.97841 10.9179 9.04654 10.9867L11.6365 13.5767C11.7783 13.7185 12.0117 13.7185 12.1536 13.5767L13.5767 12.1536C13.7185 12.0117 13.7185 11.7783 13.5767 11.6365L10.9867 9.04654ZM9.06027 19.1272H5.39955C5.19821 19.1272 5.03348 19.292 5.03348 19.4933V21.5067C5.03348 21.708 5.19821 21.8728 5.39955 21.8728H9.06027C9.26161 21.8728 9.42634 21.708 9.42634 21.5067V19.4933C9.42634 19.292 9.26161 19.1272 9.06027 19.1272Z" fill="#494949"/>
</svg>
