<svg width="40" height="40" viewBox="0 0 40 40" fill="none" xmlns="http://www.w3.org/2000/svg">
<path d="M38.4286 14.312C37.4246 11.9167 35.9692 9.74048 34.1429 7.904C32.321 6.06309 30.162 4.59598 27.7857 3.584C25.317 2.531 22.7009 2 20 2C17.2991 2 14.683 2.531 12.2143 3.584C9.83799 4.59598 7.67905 6.06309 5.85714 7.904C4.03084 9.74048 2.57538 11.9167 1.57143 14.312C0.526786 16.8005 0 19.4375 0 22.16C0 28.1315 2.60268 33.7565 7.13839 37.5995L7.21429 37.6625C7.47321 37.8785 7.79911 38 8.13393 38H31.8705C32.2054 38 32.5312 37.8785 32.7902 37.6625L32.8661 37.5995C37.3973 33.7565 40 28.1315 40 22.16C40 19.4375 39.4688 16.8005 38.4286 14.312ZM31.1339 34.58H8.86607C7.14106 33.0122 5.76236 31.0962 4.81945 28.9566C3.87654 26.8169 3.3905 24.5013 3.39286 22.16C3.39286 17.687 5.12054 13.484 8.25893 10.325C11.3973 7.1615 15.567 5.42 20 5.42C24.4375 5.42 28.6071 7.1615 31.7411 10.325C34.8795 13.4885 36.6071 17.6915 36.6071 22.16C36.6071 26.912 34.6205 31.4075 31.1339 34.58ZM24.9777 15.9275C24.9106 15.8605 24.8199 15.8229 24.7254 15.8229C24.631 15.8229 24.5403 15.8605 24.4732 15.9275L20.7009 19.73C19.8661 19.505 18.942 19.721 18.2857 20.3825C18.0533 20.6164 17.8689 20.8941 17.743 21.1999C17.6172 21.5057 17.5525 21.8335 17.5525 22.1645C17.5525 22.4955 17.6172 22.8233 17.743 23.1291C17.8689 23.4349 18.0533 23.7126 18.2857 23.9465C18.5177 24.1808 18.7933 24.3667 19.0966 24.4935C19.4 24.6203 19.7252 24.6856 20.0536 24.6856C20.382 24.6856 20.7072 24.6203 21.0105 24.4935C21.3139 24.3667 21.5894 24.1808 21.8214 23.9465C22.1323 23.634 22.3559 23.2444 22.4696 22.8169C22.5833 22.3895 22.583 21.9393 22.4687 21.512L26.2411 17.7095C26.3795 17.57 26.3795 17.3405 26.2411 17.201L24.9777 15.9275ZM19.0179 11.36H20.9821C21.1786 11.36 21.3393 11.198 21.3393 11V7.4C21.3393 7.202 21.1786 7.04 20.9821 7.04H19.0179C18.8214 7.04 18.6607 7.202 18.6607 7.4V11C18.6607 11.198 18.8214 11.36 19.0179 11.36ZM30.625 21.17V23.15C30.625 23.348 30.7857 23.51 30.9821 23.51H34.5536C34.75 23.51 34.9107 23.348 34.9107 23.15V21.17C34.9107 20.972 34.75 20.81 34.5536 20.81H30.9821C30.7857 20.81 30.625 20.972 30.625 21.17ZM31.192 12.296L29.8036 10.8965C29.7364 10.8295 29.6458 10.7919 29.5513 10.7919C29.4569 10.7919 29.3662 10.8295 29.2991 10.8965L26.7723 13.4435C26.7059 13.5112 26.6686 13.6025 26.6686 13.6978C26.6686 13.793 26.7059 13.8843 26.7723 13.952L28.1607 15.3515C28.2991 15.491 28.5268 15.491 28.6652 15.3515L31.192 12.8045C31.3304 12.665 31.3304 12.4355 31.192 12.296ZM10.7188 10.8965C10.6516 10.8295 10.561 10.7919 10.4665 10.7919C10.3721 10.7919 10.2814 10.8295 10.2143 10.8965L8.82589 12.296C8.75943 12.3637 8.72214 12.455 8.72214 12.5503C8.72214 12.6455 8.75943 12.7368 8.82589 12.8045L11.3527 15.3515C11.4911 15.491 11.7188 15.491 11.8571 15.3515L13.2455 13.952C13.3839 13.8125 13.3839 13.583 13.2455 13.4435L10.7188 10.8965ZM8.83929 20.81H5.26786C5.07143 20.81 4.91071 20.972 4.91071 21.17V23.15C4.91071 23.348 5.07143 23.51 5.26786 23.51H8.83929C9.03572 23.51 9.19643 23.348 9.19643 23.15V21.17C9.19643 20.972 9.03572 20.81 8.83929 20.81Z" fill="#BEBEBE"/>
</svg>
