<svg width="18" height="18" viewBox="0 0 18 18" fill="none" xmlns="http://www.w3.org/2000/svg">
<g clip-path="url(#clip0_3150_3966)">
<path d="M9.12682 7.93666C9.11179 7.91745 9.09258 7.90192 9.07065 7.89124C9.04872 7.88055 9.02465 7.875 9.00026 7.875C8.97587 7.875 8.95179 7.88055 8.92986 7.89124C8.90794 7.90192 8.88873 7.91745 8.8737 7.93666L6.6237 10.7833C6.60515 10.807 6.59364 10.8354 6.59048 10.8654C6.58733 10.8953 6.59266 10.9255 6.60586 10.9525C6.61906 10.9795 6.63961 11.0023 6.66514 11.0182C6.69068 11.0341 6.72017 11.0425 6.75026 11.0425H8.23486V15.9121C8.23486 16.0005 8.30718 16.0728 8.39557 16.0728H9.60093C9.68932 16.0728 9.76164 16.0005 9.76164 15.9121V11.0445H11.2503C11.3849 11.0445 11.4592 10.8898 11.3768 10.7853L9.12682 7.93666Z" fill="white"/>
<path d="M15.0147 6.07726C14.0946 3.65047 11.7502 1.9248 9.00402 1.9248C6.25781 1.9248 3.91339 3.64847 2.9933 6.07525C1.27165 6.52726 0 8.09623 0 9.96052C0 12.1804 1.79799 13.9784 4.01585 13.9784H4.82143C4.90982 13.9784 4.98214 13.9061 4.98214 13.8177V12.6123C4.98214 12.5239 4.90982 12.4516 4.82143 12.4516H4.01585C3.33884 12.4516 2.70201 12.1824 2.2279 11.6942C1.7558 11.2081 1.50469 10.5532 1.52679 9.87414C1.54487 9.34378 1.72567 8.84556 2.05312 8.4257C2.38862 7.9978 2.85871 7.68641 3.38103 7.5478L4.14241 7.34891L4.42165 6.61364C4.59442 6.15561 4.83549 5.72771 5.13884 5.33998C5.43831 4.95569 5.79306 4.61787 6.19152 4.33753C7.01719 3.75695 7.98951 3.44958 9.00402 3.44958C10.0185 3.44958 10.9908 3.75695 11.8165 4.33753C12.2163 4.61878 12.5699 4.95628 12.8692 5.33998C13.1725 5.72771 13.4136 6.15762 13.5864 6.61364L13.8636 7.3469L14.623 7.5478C15.7118 7.8411 16.4732 8.8315 16.4732 9.96052C16.4732 10.6255 16.2141 11.2523 15.744 11.7223C15.5134 11.9542 15.2392 12.1381 14.9371 12.2633C14.635 12.3884 14.3111 12.4524 13.9842 12.4516H13.1786C13.0902 12.4516 13.0179 12.5239 13.0179 12.6123V13.8177C13.0179 13.9061 13.0902 13.9784 13.1786 13.9784H13.9842C16.202 13.9784 18 12.1804 18 9.96052C18 8.09824 16.7324 6.53128 15.0147 6.07726Z" fill="white"/>
</g>
<defs>
<clipPath id="clip0_3150_3966">
<rect width="18" height="18" fill="white"/>
</clipPath>
</defs>
</svg>
