<svg width="18" height="18" viewBox="0 0 18 18" fill="none" xmlns="http://www.w3.org/2000/svg">
<g clip-path="url(#clip0_3150_3958)">
<path d="M17.3571 1.5293H0.642857C0.287277 1.5293 0 1.81657 0 2.17215V12.1364C0 12.492 0.287277 12.7793 0.642857 12.7793H8.27679V15.0293H4.82143C4.64464 15.0293 4.5 15.1739 4.5 15.3507V16.315C4.5 16.4034 4.57232 16.4757 4.66071 16.4757H13.3393C13.4277 16.4757 13.5 16.4034 13.5 16.315V15.3507C13.5 15.1739 13.3554 15.0293 13.1786 15.0293H9.72321V12.7793H17.3571C17.7127 12.7793 18 12.492 18 12.1364V2.17215C18 1.81657 17.7127 1.5293 17.3571 1.5293ZM16.5536 11.3329H1.44643V2.97573H16.5536V11.3329Z" fill="white"/>
</g>
<defs>
<clipPath id="clip0_3150_3958">
<rect width="18" height="18" fill="white"/>
</clipPath>
</defs>
</svg>
