<svg width="18" height="18" viewBox="0 0 18 18" fill="none" xmlns="http://www.w3.org/2000/svg">
<g clip-path="url(#clip0_3150_3964)">
<path d="M17.3571 7.63142H15.1875V5.34927C15.1875 4.99369 14.9002 4.70642 14.5446 4.70642H8.21652L5.86004 2.4524C5.83006 2.42433 5.79062 2.40856 5.74955 2.4082H0.642857C0.287277 2.4082 0 2.69548 0 3.05106V14.9439C0 15.2995 0.287277 15.5868 0.642857 15.5868H14.6652C14.9263 15.5868 15.1634 15.4281 15.2618 15.185L17.9538 8.51535C17.9839 8.43901 18 8.35664 18 8.27427C18 7.91869 17.7127 7.63142 17.3571 7.63142ZM1.44643 3.85463H5.23326L7.63594 6.15285H13.7411V7.63142H3.49554C3.23437 7.63142 2.99732 7.79012 2.89888 8.0332L1.44643 11.6332V3.85463ZM14.2092 14.1403H1.90848L3.98371 8.99749H16.2864L14.2092 14.1403Z" fill="white"/>
</g>
<defs>
<clipPath id="clip0_3150_3964">
<rect width="18" height="18" fill="white"/>
</clipPath>
</defs>
</svg>
