<svg width="18" height="18" viewBox="0 0 18 18" fill="none" xmlns="http://www.w3.org/2000/svg">
<g clip-path="url(#clip0_3150_3956)">
<path d="M12.8893 1.2272C12.8647 1.21481 12.8373 1.20895 12.8098 1.21017C12.7823 1.21139 12.7556 1.21966 12.7322 1.23418C12.7088 1.2487 12.6895 1.26898 12.6762 1.29309C12.6629 1.3172 12.656 1.34432 12.6562 1.37185V2.66158C12.6562 2.77207 12.7145 2.87453 12.8069 2.93479C13.2599 3.21994 13.6791 3.55556 14.0564 3.93524C14.7134 4.59417 15.2297 5.35957 15.5893 6.21136C15.9611 7.09314 16.1518 8.04075 16.1497 8.99774C16.1497 9.96404 15.9609 10.9022 15.5893 11.7841C15.2301 12.6347 14.7095 13.4076 14.0564 14.0602C13.4055 14.715 12.633 15.2363 11.7823 15.5951C10.9024 15.9687 9.96425 16.1576 8.99997 16.1576C8.03568 16.1576 7.09751 15.9687 6.2176 15.5951C5.3669 15.2363 4.59442 14.715 3.9435 14.0602C3.2904 13.4076 2.76987 12.6347 2.41068 11.7841C2.03879 10.9023 1.84818 9.95473 1.85019 8.99774C1.85019 8.03145 2.03903 7.09328 2.41068 6.21136C2.77028 5.35957 3.28658 4.59417 3.9435 3.93524C4.32519 3.55354 4.74305 3.22006 5.19305 2.93479C5.28747 2.87653 5.34372 2.77207 5.34372 2.66158V1.36984C5.34372 1.2493 5.21716 1.17296 5.11068 1.2252C2.30019 2.63948 0.361577 5.53435 0.321398 8.88926C0.265148 13.6866 4.18859 17.6723 8.9839 17.6823C13.7852 17.6924 17.6785 13.7991 17.6785 8.99573C17.6785 5.59662 15.7299 2.65354 12.8893 1.2272V1.2272ZM8.35711 9.96805H9.64283C9.73122 9.96805 9.80354 9.89573 9.80354 9.80734V0.48591C9.80354 0.397517 9.73122 0.325195 9.64283 0.325195H8.35711C8.26872 0.325195 8.1964 0.397517 8.1964 0.48591V9.80734C8.1964 9.89573 8.26872 9.96805 8.35711 9.96805Z" fill="white"/>
</g>
<defs>
<clipPath id="clip0_3150_3956">
<rect width="18" height="18" fill="white"/>
</clipPath>
</defs>
</svg>
