<svg width="328" height="81" viewBox="0 0 328 81" fill="none" xmlns="http://www.w3.org/2000/svg">
<path d="M14.016 46.32L11.584 62H0.64L7.232 20.976H20.032C20.5013 20.976 20.9493 20.9973 21.376 21.04C21.8453 21.04 22.3147 21.04 22.784 21.04C24.192 21.1253 25.5573 21.3173 26.88 21.616C28.2453 21.9147 29.5253 22.4053 30.72 23.088C32.384 24.112 33.6427 25.4133 34.496 26.992C35.3493 28.5707 35.8187 30.3627 35.904 32.368V32.88C35.904 36.4213 34.7947 39.28 32.576 41.456C30.4 43.632 27.6907 45.0827 24.448 45.808L34.432 62H21.952L14.016 46.32ZM15.04 39.664C15.296 39.664 15.552 39.6853 15.808 39.728C16.064 39.728 16.32 39.728 16.576 39.728C16.6187 39.728 16.6613 39.728 16.704 39.728C16.7893 39.728 16.8533 39.728 16.896 39.728C17.1093 39.7707 17.3227 39.792 17.536 39.792C17.7493 39.792 17.9627 39.792 18.176 39.792C18.3893 39.792 18.6027 39.792 18.816 39.792C19.072 39.7493 19.3067 39.728 19.52 39.728C20.0747 39.6853 20.608 39.6 21.12 39.472C21.632 39.3013 22.1013 39.1093 22.528 38.896C23.2533 38.512 23.8293 37.9573 24.256 37.232C24.7253 36.464 25.024 35.6747 25.152 34.864C25.1947 34.6507 25.216 34.4587 25.216 34.288C25.2587 34.0747 25.28 33.8827 25.28 33.712C25.1947 31.664 24.4907 30.3627 23.168 29.808C21.888 29.2533 20.48 28.9547 18.944 28.912C18.7307 28.912 18.5173 28.912 18.304 28.912C18.0907 28.912 17.8773 28.912 17.664 28.912H16.832L15.04 39.664ZM52.3955 52.784H65.1315L63.6595 62H39.9795L46.5715 20.976H70.1875L68.7155 30.384H55.9795L54.8915 37.168H66.7315L65.3875 46H53.5475L52.3955 52.784ZM84.769 62L73.889 20.976H85.601L90.593 44.336C90.6783 44.72 90.7423 45.1253 90.785 45.552C90.8703 45.936 90.9343 46.32 90.977 46.704C91.0197 47.088 91.041 47.4933 91.041 47.92C91.0837 48.304 91.1263 48.688 91.169 49.072C91.2543 48.816 91.3397 48.56 91.425 48.304C91.553 48.0053 91.6597 47.728 91.745 47.472C91.9583 46.9173 92.1717 46.384 92.385 45.872C92.5983 45.3173 92.8117 44.784 93.025 44.272L103.905 20.976H116.065L94.369 62H84.769Z" fill="white"/>
<path d="M119.032 62H107.128L127.672 20.976H141.368L150.008 62H138.936L137.272 54.192H123L119.032 62ZM127.032 45.104H135.736L133.816 35.504C133.731 35.0347 133.645 34.5867 133.56 34.16C133.517 33.7333 133.475 33.3067 133.432 32.88C133.432 32.7947 133.411 32.7093 133.368 32.624C133.368 32.5387 133.368 32.4747 133.368 32.432C133.368 32.176 133.347 31.92 133.304 31.664C133.261 31.408 133.219 31.152 133.176 30.896C133.005 31.408 132.835 31.9413 132.664 32.496C132.493 33.008 132.301 33.5413 132.088 34.096C132.003 34.352 131.896 34.6293 131.768 34.928C131.683 35.184 131.576 35.44 131.448 35.696L127.032 45.104ZM154.104 62L160.696 20.976H171.64L166.776 52.208H180.216L178.744 62H154.104ZM245.293 46.32L242.861 62H231.917L238.509 20.976H251.309C251.779 20.976 252.227 20.9973 252.653 21.04C253.123 21.04 253.592 21.04 254.061 21.04C255.469 21.1253 256.835 21.3173 258.157 21.616C259.523 21.9147 260.803 22.4053 261.997 23.088C263.661 24.112 264.92 25.4133 265.773 26.992C266.627 28.5707 267.096 30.3627 267.181 32.368V32.88C267.181 36.4213 266.072 39.28 263.853 41.456C261.677 43.632 258.968 45.0827 255.725 45.808L265.709 62H253.229L245.293 46.32ZM246.317 39.664C246.573 39.664 246.829 39.6853 247.085 39.728C247.341 39.728 247.597 39.728 247.853 39.728C247.896 39.728 247.939 39.728 247.981 39.728C248.067 39.728 248.131 39.728 248.173 39.728C248.387 39.7707 248.6 39.792 248.813 39.792C249.027 39.792 249.24 39.792 249.453 39.792C249.667 39.792 249.88 39.792 250.093 39.792C250.349 39.7493 250.584 39.728 250.797 39.728C251.352 39.6853 251.885 39.6 252.397 39.472C252.909 39.3013 253.379 39.1093 253.805 38.896C254.531 38.512 255.107 37.9573 255.533 37.232C256.003 36.464 256.301 35.6747 256.429 34.864C256.472 34.6507 256.493 34.4587 256.493 34.288C256.536 34.0747 256.557 33.8827 256.557 33.712C256.472 31.664 255.768 30.3627 254.445 29.808C253.165 29.2533 251.757 28.9547 250.221 28.912C250.008 28.912 249.795 28.912 249.581 28.912C249.368 28.912 249.155 28.912 248.941 28.912H248.109L246.317 39.664ZM271.193 62L277.657 20.976H288.793L282.329 62H271.193ZM298.227 47.792C298.312 47.8773 298.376 47.9627 298.419 48.048C298.504 48.0907 298.568 48.1333 298.611 48.176C299.763 49.328 300.958 50.3733 302.195 51.312C303.432 52.208 304.862 52.784 306.483 53.04C306.568 53.04 306.675 53.04 306.803 53.04C306.931 53.04 307.059 53.04 307.187 53.04C307.272 53.0827 307.379 53.104 307.507 53.104C307.635 53.104 307.742 53.104 307.827 53.104C307.87 53.104 307.912 53.104 307.955 53.104C308.04 53.104 308.104 53.104 308.147 53.104C309 53.0613 309.811 52.8907 310.579 52.592C311.347 52.2507 311.902 51.696 312.243 50.928C312.243 50.8427 312.243 50.7787 312.243 50.736C312.286 50.6507 312.307 50.5867 312.307 50.544C312.307 50.5013 312.307 50.4587 312.307 50.416C312.35 50.3733 312.371 50.3307 312.371 50.288C312.371 50.2027 312.371 50.1173 312.371 50.032C312.414 49.904 312.435 49.7973 312.435 49.712C312.435 48.6027 311.944 47.6427 310.963 46.832C309.982 45.9787 308.894 45.232 307.699 44.592C306.974 44.1653 306.248 43.8027 305.523 43.504C304.84 43.1627 304.286 42.864 303.859 42.608C301.982 41.4987 300.574 40.0907 299.635 38.384C298.696 36.6773 298.227 34.9067 298.227 33.072C298.227 32.7733 298.227 32.4747 298.227 32.176C298.27 31.8773 298.312 31.5787 298.355 31.28C298.654 29.616 299.272 28.016 300.211 26.48C301.15 24.944 302.366 23.664 303.859 22.64C304.968 21.872 306.142 21.2747 307.379 20.848C308.659 20.4213 309.918 20.1653 311.155 20.08C311.368 20.0373 311.582 20.016 311.795 20.016C312.008 20.016 312.222 20.016 312.435 20.016C312.776 20.016 313.096 20.0373 313.395 20.08C313.736 20.08 314.078 20.1013 314.419 20.144C316.424 20.3573 318.366 20.8693 320.243 21.68C322.163 22.4907 323.912 23.472 325.491 24.624L320.755 32.752C320.712 32.7093 320.648 32.6667 320.563 32.624C320.478 32.5387 320.414 32.4747 320.371 32.432C319.39 31.5787 318.323 30.8107 317.171 30.128C316.019 29.4027 314.76 29.04 313.395 29.04C312.542 29.04 311.731 29.2747 310.963 29.744C310.195 30.1707 309.704 30.8747 309.491 31.856C309.491 31.856 309.491 31.8773 309.491 31.92C309.491 31.9627 309.491 32.0267 309.491 32.112C309.448 32.112 309.427 32.112 309.427 32.112C309.427 32.1547 309.427 32.1973 309.427 32.24C309.427 32.2827 309.427 32.3253 309.427 32.368C309.427 32.9653 309.662 33.52 310.131 34.032C310.643 34.5013 311.198 34.928 311.795 35.312C311.838 35.3547 311.88 35.3973 311.923 35.44C312.008 35.44 312.072 35.4613 312.115 35.504C312.456 35.7173 312.798 35.9093 313.139 36.08C313.523 36.2507 313.907 36.4427 314.291 36.656C314.376 36.6987 314.462 36.7413 314.547 36.784C314.632 36.8267 314.718 36.8693 314.803 36.912C315.955 37.4667 317.086 38.0853 318.195 38.768C319.347 39.4507 320.392 40.304 321.331 41.328C321.928 42.0533 322.398 42.8427 322.739 43.696C323.123 44.5067 323.379 45.36 323.507 46.256C323.592 46.5973 323.635 46.9387 323.635 47.28C323.678 47.6213 323.699 47.9627 323.699 48.304C323.699 48.56 323.678 48.816 323.635 49.072C323.635 49.328 323.635 49.584 323.635 49.84C323.336 52.272 322.44 54.576 320.947 56.752C319.496 58.8853 317.704 60.4213 315.571 61.36C314.888 61.6587 314.163 61.8933 313.395 62.064C312.67 62.2773 311.944 62.448 311.219 62.576C310.622 62.704 310.024 62.7893 309.427 62.832C308.83 62.8747 308.254 62.896 307.699 62.896C304.883 62.896 302.152 62.32 299.507 61.168C296.904 59.9733 294.6 58.2667 292.595 56.048L298.227 47.792Z" fill="white"/>
<path d="M193.417 60.528C190.175 58.7787 187.764 56.3467 186.185 53.232C184.607 50.1173 183.817 46.8747 183.817 43.504C183.817 43.0773 183.817 42.672 183.817 42.288C183.86 41.8613 183.903 41.456 183.945 41.072C184.201 38.6827 184.799 36.3573 185.737 34.096C186.719 31.8347 187.956 29.7867 189.449 27.952C191.54 25.52 194.143 23.6213 197.257 22.256C200.372 20.848 203.572 20.08 206.857 19.952C207.028 19.952 207.177 19.952 207.305 19.952C207.476 19.952 207.647 19.952 207.817 19.952C208.073 19.952 208.329 19.952 208.585 19.952C208.884 19.952 209.183 19.9733 209.481 20.016C211.401 20.144 213.3 20.5067 215.177 21.104C217.097 21.7013 218.847 22.5333 220.425 23.6C223.113 25.4347 225.097 27.7813 226.377 30.64C227.657 33.4987 228.298 36.464 228.298 39.536C228.298 39.9627 228.276 40.3893 228.234 40.816C228.234 41.2 228.212 41.6053 228.169 42.032C227.956 44.0373 227.487 46.0213 226.762 47.984C226.036 49.904 225.119 51.6533 224.009 53.232C222.047 56.0907 219.444 58.352 216.201 60.016C212.959 61.6373 209.588 62.5973 206.089 62.896C205.748 62.896 205.385 62.896 205.001 62.896C204.66 62.9387 204.319 62.96 203.977 62.96C202.143 62.96 200.329 62.7467 198.537 62.32C196.745 61.936 195.039 61.3387 193.417 60.528ZM211.145 30.896C210.804 30.7253 210.441 30.5973 210.057 30.512C209.716 30.384 209.353 30.2987 208.969 30.256C208.585 30.1707 208.201 30.128 207.817 30.128C207.476 30.0853 207.135 30.064 206.793 30.064C204.191 30.064 201.823 30.96 199.689 32.752C197.599 34.5013 196.233 36.7413 195.593 39.472C195.551 39.6853 195.487 39.92 195.401 40.176C195.359 40.3893 195.316 40.6027 195.273 40.816C195.231 41.2 195.188 41.584 195.145 41.968C195.103 42.3093 195.081 42.6507 195.081 42.992C195.081 46.1067 196.105 48.5813 198.153 50.416C200.244 52.208 202.569 53.104 205.129 53.104C205.428 53.104 205.727 53.104 206.025 53.104C206.324 53.0613 206.623 52.9973 206.921 52.912C208.628 52.6133 210.271 51.888 211.849 50.736C213.428 49.5413 214.687 47.8987 215.625 45.808C215.881 45.296 216.073 44.7627 216.201 44.208C216.372 43.6107 216.5 43.0133 216.585 42.416C216.671 42.0747 216.714 41.7333 216.714 41.392C216.756 41.0507 216.778 40.7093 216.778 40.368C216.778 40.1547 216.778 39.9627 216.778 39.792C216.778 39.5787 216.756 39.3867 216.714 39.216C216.543 37.5093 216.009 35.9093 215.113 34.416C214.217 32.88 212.895 31.7067 211.145 30.896Z" fill="url(#paint0_linear_3017_8061)"/>
<path d="M212.307 5C209.307 9.12505 209.971 14.1667 210.304 17C215.804 17 220.792 14.9288 223.307 11.5C224.807 9.45421 225.307 4.5 224.807 0C219.807 0.5 214.807 1.56241 212.307 5Z" fill="#579F2F"/>
<defs>
<linearGradient id="paint0_linear_3017_8061" x1="217" y1="67.5" x2="217" y2="18.5" gradientUnits="userSpaceOnUse">
<stop stop-color="#FF814F"/>
<stop offset="1" stop-color="#FFD779"/>
</linearGradient>
</defs>
</svg>
